<?xml version="1.0" standalone="no"?>
<!DOCTYPE svg PUBLIC "-//W3C//DTD SVG 20010904//EN"
 "http://www.w3.org/TR/2001/REC-SVG-20010904/DTD/svg10.dtd">
<svg version="1.0" xmlns="http://www.w3.org/2000/svg"
 width="575.000000pt" height="434.000000pt" viewBox="0 0 575.000000 434.000000"
 preserveAspectRatio="xMidYMid meet">

<g transform="translate(0.000000,434.000000) scale(0.100000,-0.100000)"
fill="#000000" stroke="none">
<path d="M2760 3474 c-19 -3 -73 -12 -120 -20 -681 -122 -1162 -750 -1100
-1434 32 -350 188 -657 453 -891 156 -138 351 -240 562 -295 104 -28 121 -29
320 -29 187 0 220 3 305 24 260 65 455 175 646 365 194 195 314 415 371 686
13 63 18 130 18 255 0 188 -14 273 -67 430 -98 290 -300 541 -573 716 -117 74
-309 147 -460 174 -92 16 -292 27 -355 19z m-287 -288 c73 -31 104 -106 74
-178 -14 -34 -14 -38 4 -54 10 -9 17 -20 13 -23 -10 -10 -188 -10 -229 0 -77
20 -116 83 -101 164 8 39 55 91 89 98 49 9 119 6 150 -7z m705 8 c19 -5 22
-13 22 -51 0 -40 -2 -43 -19 -33 -50 26 -111 -2 -111 -50 0 -48 61 -76 111
-50 17 10 19 7 19 -34 0 -44 -1 -44 -39 -51 -115 -19 -206 75 -172 178 25 73
106 113 189 91z m-498 -94 c0 -75 3 -91 18 -99 11 -6 24 -6 35 0 14 8 17 25
17 99 l0 90 45 0 45 0 0 -85 c0 -92 -16 -147 -47 -163 -35 -19 -91 -24 -128
-12 -58 19 -75 57 -75 168 l0 92 45 0 45 0 0 -90z m280 -40 l0 -130 -45 0 -45
0 0 130 0 130 45 0 45 0 0 -130z m360 93 l1 -38 32 38 c30 34 36 37 85 37 l54
0 -55 -62 -55 -62 59 -65 59 -66 -52 -3 c-50 -3 -53 -2 -89 40 l-38 43 -1 -42
0 -43 -45 0 -45 0 0 130 0 130 45 0 45 0 0 -37z m619 -373 l3 -25 -22 20 c-20
19 -36 20 -215 20 -215 0 -221 -2 -250 -72 l-14 -33 -805 0 c-442 0 -811 3
-820 6 -12 4 -16 20 -16 53 0 26 3 51 7 54 3 4 484 6 1067 5 l1061 -3 4 -25z
m-48 -66 c9 -11 10 -20 2 -32 -9 -15 -33 -17 -165 -20 l-155 -2 -12 -43 c-40
-135 -252 -802 -263 -825 l-13 -27 -434 0 c-402 0 -435 1 -445 18 -8 12 -8 22
0 35 10 16 43 17 422 20 l411 2 10 33 c5 17 37 118 70 223 34 106 61 195 61
198 0 3 -230 6 -511 6 -481 0 -510 -1 -505 -17 2 -10 8 -38 11 -63 14 -87 -30
-80 466 -80 398 0 441 -2 435 -16 -3 -9 -6 -24 -6 -35 0 -18 -13 -19 -434 -19
-252 0 -445 4 -460 10 -42 16 -58 55 -98 238 -44 203 -46 234 -18 262 20 20
33 20 620 20 l599 0 17 58 c9 31 18 60 21 65 2 4 84 7 182 7 151 0 181 -2 192
-16z m-1702 -268 c20 -81 33 -76 -173 -76 -101 0 -191 3 -200 6 -12 4 -16 20
-16 53 0 26 3 51 7 54 3 4 88 7 188 7 l183 0 11 -44z m1739 32 c7 -7 12 -28
12 -48 0 -20 -5 -41 -12 -48 -18 -18 -381 -17 -376 1 2 6 10 33 17 60 l13 47
167 0 c117 0 171 -4 179 -12z m0 -300 c18 -18 15 -95 -4 -102 -9 -3 -117 -6
-240 -6 -249 0 -235 -5 -208 73 l16 47 212 0 c152 0 215 -3 224 -12z m-1674
-39 c3 -17 15 -44 27 -60 l21 -29 -249 2 -248 3 -3 49 c-2 32 1 52 10 57 7 5
108 9 224 9 l212 0 6 -31z m101 -279 c-10 -11 -19 -36 -19 -55 l-1 -35 -260 0
c-280 0 -285 1 -285 51 0 62 -14 59 298 59 l285 0 -18 -20z m1580 -35 l0 -50
-289 -3 c-249 -2 -287 0 -283 12 3 8 11 33 17 56 l11 40 272 -2 272 -3 0 -50z
m-1320 -210 c29 -28 31 -51 9 -83 -18 -27 -69 -30 -96 -5 -26 23 -24 77 5 96
32 23 54 21 82 -8z m603 5 c45 -42 17 -110 -44 -110 -37 0 -64 29 -64 67 0 28
37 63 65 63 12 0 31 -9 43 -20z m-768 -76 c0 -16 13 -39 34 -60 l34 -34 -343
0 c-189 0 -350 3 -359 6 -12 4 -16 20 -16 53 0 26 3 51 7 54 3 4 150 7 325 7
l318 0 0 -26z m604 -5 c3 -17 20 -44 37 -60 l31 -29 -247 0 -247 0 32 31 c17
17 34 44 37 60 l6 29 172 0 173 0 6 -31z m884 -17 c5 -75 21 -72 -366 -72
l-346 0 32 30 c18 16 35 43 38 60 l7 30 316 -2 316 -3 3 -43z m-1432 -267 c18
-48 24 -56 29 -40 35 96 42 105 83 105 45 0 40 11 68 -147 10 -57 22 -103 25
-103 4 0 12 15 20 33 20 52 68 160 82 187 11 21 20 25 57 25 l44 0 47 -104
c26 -56 51 -113 55 -125 5 -13 9 28 11 107 l4 127 57 0 c65 0 125 -14 141 -34
25 -30 24 -71 -4 -105 l-28 -32 24 -27 c14 -15 33 -37 43 -49 l19 -23 -55 0
c-52 0 -57 2 -79 35 l-24 35 -5 -33 -5 -32 -93 -3 c-87 -3 -94 -1 -99 18 -4
17 -13 20 -53 20 -39 0 -49 -4 -53 -20 -5 -19 -12 -20 -99 -18 l-93 3 -9 53
c-5 28 -12 52 -16 52 -3 0 -19 -40 -35 -90 -17 -49 -33 -90 -36 -90 -3 0 -16
30 -28 68 -12 37 -28 81 -35 97 l-13 30 -6 -53 c-3 -29 -9 -57 -12 -62 -3 -6
-24 -10 -47 -10 -37 0 -40 2 -35 23 3 12 13 65 22 117 23 137 20 132 67 128
40 -3 42 -4 64 -63z m974 31 c0 -30 -3 -35 -27 -38 l-28 -3 -3 -97 -3 -98 -39
0 -40 0 0 100 0 100 -30 0 c-26 0 -30 4 -30 28 0 16 3 32 7 35 3 4 48 7 100 7
l93 0 0 -34z"/>
<path d="M2370 3123 c-52 -20 -67 -80 -28 -107 29 -21 60 -22 33 -2 -19 13
-18 15 16 21 20 4 44 5 55 3 26 -4 30 32 7 60 -19 23 -58 35 -83 25z"/>
<path d="M2314 2508 c3 -13 11 -49 17 -80 l12 -58 532 0 532 0 25 75 c14 41
23 77 20 80 -3 3 -262 5 -575 5 l-569 0 6 -22z"/>
<path d="M3120 1225 c0 -23 2 -24 21 -15 16 9 18 14 8 26 -17 21 -29 17 -29
-11z"/>
<path d="M2856 1188 c-9 -35 -8 -38 15 -38 15 0 19 4 15 16 -3 9 -6 22 -6 30
0 22 -17 16 -24 -8z"/>
</g>
</svg>
