<?xml version="1.0" standalone="no"?>
<!DOCTYPE svg PUBLIC "-//W3C//DTD SVG 20010904//EN"
 "http://www.w3.org/TR/2001/REC-SVG-20010904/DTD/svg10.dtd">
<svg version="1.0" xmlns="http://www.w3.org/2000/svg"
 width="497.000000pt" height="502.000000pt" viewBox="0 0 497.000000 502.000000"
 preserveAspectRatio="xMidYMid meet">

<g transform="translate(0.000000,502.000000) scale(0.100000,-0.100000)"
fill="#000000" stroke="none">
<path d="M2180 4725 c-418 -58 -823 -235 -1135 -497 -801 -670 -1040 -1776
-586 -2703 337 -688 981 -1147 1746 -1246 120 -15 407 -15 525 0 513 67 964
287 1321 644 181 181 315 369 429 602 108 222 169 417 207 665 24 158 24 472
-1 630 -78 506 -300 939 -662 1290 -183 178 -345 291 -579 406 -228 111 -441
175 -695 210 -131 17 -441 17 -570 -1z m-387 -465 c129 -48 185 -191 123 -314
l-24 -47 41 -34 c22 -19 39 -37 36 -39 -2 -2 -36 -7 -75 -11 -57 -5 -73 -4
-83 9 -9 11 -19 13 -37 5 -14 -5 -61 -9 -104 -9 -174 0 -280 87 -280 230 0 94
46 164 135 206 67 32 189 33 268 4z m1186 9 l31 -11 0 -76 c0 -75 0 -75 -20
-57 -13 11 -41 20 -75 23 -52 4 -56 3 -90 -31 -22 -22 -35 -45 -35 -61 0 -35
25 -83 49 -96 30 -16 118 -12 146 6 l25 16 0 -71 c0 -68 -1 -72 -26 -81 -36
-14 -142 -12 -187 4 -98 35 -151 111 -152 216 0 53 5 73 27 111 28 47 85 94
134 109 42 12 136 12 173 -1z m-839 -146 c0 -162 7 -183 61 -183 50 0 59 27
59 187 l0 143 71 0 70 0 -3 -172 c-3 -164 -4 -175 -27 -207 -34 -47 -91 -71
-174 -71 -80 0 -123 16 -159 58 -36 43 -48 110 -48 262 l0 130 75 0 75 0 0
-147z m460 -73 l0 -220 -70 0 -70 0 0 220 0 220 70 0 70 0 0 -220z m600 155
c0 -36 3 -65 8 -64 4 0 30 29 57 64 l50 64 88 1 c51 0 87 -4 85 -9 -1 -6 -40
-50 -85 -100 -46 -49 -83 -93 -83 -98 0 -5 40 -54 89 -111 49 -56 92 -106 96
-112 4 -6 -25 -10 -83 -10 l-90 0 -57 68 c-32 37 -61 69 -66 70 -5 2 -9 -28
-9 -67 l0 -71 -70 0 -70 0 0 220 0 220 70 0 70 0 0 -65z m1024 -591 c9 -8 16
-26 16 -39 l0 -24 -36 24 c-50 34 -85 37 -390 33 l-271 -3 -40 -27 c-36 -24
-65 -68 -87 -131 -5 -17 -70 -17 -1363 -11 -1218 6 -1359 8 -1370 22 -19 24
-17 131 4 154 15 17 84 18 1769 18 1580 0 1754 -2 1768 -16z m-72 -131 c22
-20 23 -61 1 -85 -15 -17 -37 -18 -268 -18 l-251 0 -230 -732 c-132 -422 -236
-740 -246 -750 -17 -17 -63 -18 -731 -18 -792 0 -757 -3 -757 64 0 64 -33 61
719 66 l685 5 59 190 c33 105 85 273 117 375 33 101 58 186 56 187 -4 4 -1688
4 -1693 0 -2 -2 9 -59 23 -126 l27 -121 737 0 737 0 -4 -52 c-3 -29 -6 -59 -8
-65 -6 -17 -1409 -19 -1467 -3 -52 15 -94 53 -112 103 -18 48 -146 627 -146
660 0 29 33 83 62 99 18 10 222 14 1017 18 l994 5 32 98 c17 54 38 103 46 108
8 5 142 9 298 9 251 0 287 -2 303 -17z m-2824 -490 l20 -93 -321 0 c-374 0
-357 -5 -357 95 0 100 -19 94 325 97 165 2 303 1 306 -2 4 -3 16 -47 27 -97z
m2890 91 c19 -13 22 -24 22 -84 0 -49 -4 -73 -16 -84 -13 -14 -57 -16 -326
-16 -244 0 -309 3 -305 13 2 6 17 51 33 100 l28 87 271 0 c229 0 274 -2 293
-16z m6 -510 c12 -11 16 -35 16 -84 0 -106 26 -100 -428 -100 -336 0 -383 2
-378 15 3 8 17 53 32 100 l26 85 358 0 c313 0 361 -2 374 -16z m-2788 -72 c8
-29 28 -73 44 -98 l31 -44 -402 0 c-467 0 -439 -6 -439 95 0 61 11 88 40 98 8
3 172 5 364 4 l349 -2 13 -53z m2774 -425 c23 -11 25 -19 28 -86 2 -45 -2 -78
-9 -87 -10 -12 -90 -14 -484 -14 l-473 0 30 92 c16 51 32 96 34 100 3 4 195 8
427 8 319 0 428 -3 447 -13z m-2604 -25 c-32 -34 -50 -92 -41 -133 l7 -29
-440 0 c-504 0 -467 -8 -467 95 0 103 -41 95 498 95 l471 0 -28 -28z m433
-411 c26 -24 31 -37 31 -73 0 -50 -19 -82 -62 -104 -80 -41 -176 45 -148 132
26 77 120 100 179 45z m994 9 c30 -24 51 -80 42 -112 -10 -32 -53 -75 -82 -83
-14 -3 -40 -1 -59 5 -78 26 -101 121 -43 179 38 38 101 43 142 11z m-1275
-135 c16 -60 37 -92 86 -126 l39 -29 -586 0 c-680 0 -627 -8 -627 100 0 108
-43 100 558 100 l518 0 12 -45z m1004 0 c11 -50 41 -95 86 -126 l36 -24 -213
-3 c-117 -1 -305 -1 -419 0 l-207 3 37 22 c39 23 82 88 93 141 l7 32 286 -2
286 -3 8 -40z m1460 28 c14 -12 18 -31 18 -83 0 -109 55 -101 -616 -98 l-579
3 37 22 c43 25 74 69 90 131 l12 42 510 0 c460 0 511 -2 528 -17z m-1597 -615
c50 -115 92 -208 95 -208 3 0 4 92 2 205 l-3 205 128 0 c102 0 135 -4 162 -18
52 -26 76 -65 76 -124 0 -46 -3 -53 -41 -87 l-41 -36 26 -31 c14 -17 46 -54
69 -83 l44 -51 -94 0 -93 1 -40 57 -40 57 -3 -57 -3 -58 -159 0 -158 0 -11 30
c-10 30 -11 30 -85 30 l-74 0 -7 -30 -7 -30 -159 0 c-119 0 -161 3 -164 13 -3
6 -11 52 -18 102 -7 49 -16 85 -19 80 -3 -6 -29 -81 -57 -167 -29 -87 -56
-158 -61 -158 -4 0 -33 75 -63 166 -32 95 -57 158 -60 147 -3 -10 -11 -55 -17
-100 l-12 -83 -74 0 c-72 0 -74 1 -69 23 7 31 75 393 75 401 0 4 33 6 72 4
l73 -3 35 -92 c19 -51 37 -93 40 -93 3 0 21 42 40 93 l35 92 71 3 c68 3 72 2
77 -20 3 -13 20 -104 37 -203 18 -99 36 -183 39 -187 4 -4 44 79 90 185 46
105 90 202 98 215 13 21 20 23 86 20 l72 -3 90 -207z m855 147 l0 -55 -50 0
-50 0 0 -160 0 -160 -70 0 -70 0 0 160 0 160 -45 0 -45 0 0 55 0 55 165 0 165
0 0 -55z"/>
<path d="M1616 4150 c-41 -13 -65 -38 -72 -77 -10 -52 12 -92 64 -115 54 -24
62 -19 22 15 -30 26 -30 26 -8 31 60 12 121 15 138 6 31 -17 41 39 15 89 -25
49 -92 71 -159 51z"/>
<path d="M1534 3121 c3 -22 15 -80 27 -130 l21 -91 887 0 886 0 42 124 c22 69
38 127 35 130 -3 3 -433 6 -955 6 l-950 0 7 -39z"/>
<path d="M2870 984 c0 -31 3 -35 21 -32 48 7 51 68 4 68 -22 0 -25 -4 -25 -36z"/>
<path d="M2443 943 c-7 -27 -15 -58 -19 -70 -6 -21 -3 -23 36 -23 34 0 41 3
36 15 -3 9 -13 40 -22 70 -8 30 -16 55 -17 55 -1 0 -8 -21 -14 -47z"/>
</g>
</svg>
